<?xml version="1.0" standalone="no"?>
<!DOCTYPE svg PUBLIC "-//W3C//DTD SVG 20010904//EN"
 "http://www.w3.org/TR/2001/REC-SVG-20010904/DTD/svg10.dtd">
<svg version="1.0" xmlns="http://www.w3.org/2000/svg"
 width="136.000000pt" height="136.000000pt" viewBox="0 0 136.000000 136.000000"
 preserveAspectRatio="xMidYMid meet">
<metadata>
Created by potrace 1.11, written by Peter Selinger 2001-2013
</metadata>
<g transform="translate(0.000000,136.000000) scale(0.100000,-0.100000)"
fill="#000000" stroke="none">
<path d="M648 1265 c-3 -3 -138 -46 -299 -95 -271 -82 -296 -91 -321 -121
l-28 -33 0 -341 0 -341 28 -32 c24 -28 54 -40 317 -119 160 -48 292 -91 293
-95 5 -10 79 -10 84 0 2 4 127 45 278 91 151 46 287 90 302 97 56 29 58 42 58
406 l0 334 -27 32 c-26 30 -54 40 -338 127 -302 92 -336 101 -347 90z"/>
<path d="M1257 1182 c-24 -26 -21 -49 8 -68 23 -15 27 -15 50 0 30 19 32 46 7
69 -24 22 -45 21 -65 -1z"/>
</g>
</svg>
